<svg xmlns="http://www.w3.org/2000/svg" version="1.1" xmlns:xlink="http://www.w3.org/1999/xlink" xmlns:svgjs="http://svgjs.com/svgjs" width="1440" height="560" preserveAspectRatio="none" viewBox="0 0 1440 560"><g mask="url(&quot;#SvgjsMask1000&quot;)" fill="none"><rect width="1440" height="560" x="0" y="0" fill="#0e2a47"></rect><path d="M-40.72 396.22L-40.72 396.22" stroke="#132e65" stroke-width="1.5"></path><path d="M-40.72 396.22L108.99 409.54" stroke="#132e65" stroke-width="1.5"></path><path d="M-40.72 396.22L70.77 552.78" stroke="#132e65" stroke-width="1.5"></path><path d="M-42.66 644.92L-42.66 644.92" stroke="#132e65" stroke-width="1.5"></path><path d="M-42.66 644.92L87.16 695.89" stroke="#132e65" stroke-width="1.5"></path><path d="M-42.66 644.92L70.77 552.78" stroke="#132e65" stroke-width="1.5"></path><path d="M-42.66 644.92L-40.72 396.22" stroke="#132e65" stroke-width="1.5"></path><path d="M108.99 409.54L108.99 409.54" stroke="#132e65" stroke-width="1.5"></path><path d="M108.99 409.54L238.26 349.78" stroke="#132e65" stroke-width="1.5"></path><path d="M108.99 409.54L70.77 552.78" stroke="#132e65" stroke-width="1.5"></path><path d="M108.99 409.54L232.2 526.55" stroke="#132e65" stroke-width="1.5"></path><path d="M70.77 552.78L70.77 552.78" stroke="#132e65" stroke-width="1.5"></path><path d="M70.77 552.78L87.16 695.89" stroke="#132e65" stroke-width="1.5"></path><path d="M87.16 695.89L87.16 695.89" stroke="#132e65" stroke-width="1.5"></path><path d="M87.16 695.89L258.5 680.43" stroke="#132e65" stroke-width="1.5"></path><path d="M87.16 695.89L232.2 526.55" stroke="#132e65" stroke-width="1.5"></path><path d="M87.16 695.89L108.99 409.54" stroke="#132e65" stroke-width="1.5"></path><path d="M238.26 349.78L238.26 349.78" stroke="#132e65" stroke-width="1.5"></path><path d="M238.26 349.78L396.15 383.2" stroke="#132e65" stroke-width="1.5"></path><path d="M232.2 526.55L232.2 526.55" stroke="#132e65" stroke-width="1.5"></path><path d="M232.2 526.55L354.18 554.57" stroke="#132e65" stroke-width="1.5"></path><path d="M232.2 526.55L258.5 680.43" stroke="#132e65" stroke-width="1.5"></path><path d="M258.5 680.43L258.5 680.43" stroke="#132e65" stroke-width="1.5"></path><path d="M258.5 680.43L388.83 673.49" stroke="#132e65" stroke-width="1.5"></path><path d="M258.5 680.43L354.18 554.57" stroke="#132e65" stroke-width="1.5"></path><path d="M396.15 383.2L396.15 383.2" stroke="#132e65" stroke-width="1.5"></path><path d="M396.15 383.2L538.63 364.25" stroke="#132e65" stroke-width="1.5"></path><path d="M354.18 554.57L354.18 554.57" stroke="#132e65" stroke-width="1.5"></path><path d="M354.18 554.57L388.83 673.49" stroke="#132e65" stroke-width="1.5"></path><path d="M388.83 673.49L388.83 673.49" stroke="#132e65" stroke-width="1.5"></path><path d="M388.83 673.49L541.47 677.66" stroke="#132e65" stroke-width="1.5"></path><path d="M388.83 673.49L531.04 550.87" stroke="#132e65" stroke-width="1.5"></path><path d="M388.83 673.49L232.2 526.55" stroke="#132e65" stroke-width="1.5"></path><path d="M538.63 364.25L538.63 364.25" stroke="#132e65" stroke-width="1.5"></path><path d="M538.63 364.25L708.3 386.22" stroke="#132e65" stroke-width="1.5"></path><path d="M538.63 364.25L531.04 550.87" stroke="#132e65" stroke-width="1.5"></path><path d="M538.63 364.25L688 533.63" stroke="#132e65" stroke-width="1.5"></path><path d="M538.63 364.25L710.68 196.87" stroke="#132e65" stroke-width="1.5"></path><path d="M538.63 364.25L354.18 554.57" stroke="#132e65" stroke-width="1.5"></path><path d="M531.04 550.87L531.04 550.87" stroke="#132e65" stroke-width="1.5"></path><path d="M531.04 550.87L541.47 677.66" stroke="#132e65" stroke-width="1.5"></path><path d="M531.04 550.87L688 533.63" stroke="#132e65" stroke-width="1.5"></path><path d="M531.04 550.87L354.18 554.57" stroke="#132e65" stroke-width="1.5"></path><path d="M541.47 677.66L541.47 677.66" stroke="#132e65" stroke-width="1.5"></path><path d="M541.47 677.66L664.89 678.95" stroke="#132e65" stroke-width="1.5"></path><path d="M541.47 677.66L688 533.63" stroke="#132e65" stroke-width="1.5"></path><path d="M541.47 677.66L354.18 554.57" stroke="#132e65" stroke-width="1.5"></path><path d="M710.68 196.87L710.68 196.87" stroke="#132e65" stroke-width="1.5"></path><path d="M710.68 196.87L848.33 214.14" stroke="#132e65" stroke-width="1.5"></path><path d="M710.68 196.87L708.3 386.22" stroke="#132e65" stroke-width="1.5"></path><path d="M710.68 196.87L836.46 354.94" stroke="#132e65" stroke-width="1.5"></path><path d="M708.3 386.22L708.3 386.22" stroke="#132e65" stroke-width="1.5"></path><path d="M708.3 386.22L836.46 354.94" stroke="#132e65" stroke-width="1.5"></path><path d="M708.3 386.22L688 533.63" stroke="#132e65" stroke-width="1.5"></path><path d="M708.3 386.22L841.37 522.5" stroke="#132e65" stroke-width="1.5"></path><path d="M708.3 386.22L848.33 214.14" stroke="#132e65" stroke-width="1.5"></path><path d="M688 533.63L688 533.63" stroke="#132e65" stroke-width="1.5"></path><path d="M688 533.63L664.89 678.95" stroke="#132e65" stroke-width="1.5"></path><path d="M664.89 678.95L664.89 678.95" stroke="#132e65" stroke-width="1.5"></path><path d="M664.89 678.95L531.04 550.87" stroke="#132e65" stroke-width="1.5"></path><path d="M848.33 214.14L848.33 214.14" stroke="#132e65" stroke-width="1.5"></path><path d="M848.33 214.14L836.46 354.94" stroke="#132e65" stroke-width="1.5"></path><path d="M848.33 214.14L1002.83 232.35" stroke="#132e65" stroke-width="1.5"></path><path d="M848.33 214.14L972.92 103.75" stroke="#132e65" stroke-width="1.5"></path><path d="M848.33 214.14L994.14 363.31" stroke="#132e65" stroke-width="1.5"></path><path d="M836.46 354.94L836.46 354.94" stroke="#132e65" stroke-width="1.5"></path><path d="M836.46 354.94L994.14 363.31" stroke="#132e65" stroke-width="1.5"></path><path d="M836.46 354.94L841.37 522.5" stroke="#132e65" stroke-width="1.5"></path><path d="M841.37 522.5L841.37 522.5" stroke="#132e65" stroke-width="1.5"></path><path d="M841.37 522.5L953.09 500.47" stroke="#132e65" stroke-width="1.5"></path><path d="M841.37 522.5L853.65 649.46" stroke="#132e65" stroke-width="1.5"></path><path d="M841.37 522.5L688 533.63" stroke="#132e65" stroke-width="1.5"></path><path d="M853.65 649.46L853.65 649.46" stroke="#132e65" stroke-width="1.5"></path><path d="M853.65 649.46L987.58 676.32" stroke="#132e65" stroke-width="1.5"></path><path d="M853.65 649.46L953.09 500.47" stroke="#132e65" stroke-width="1.5"></path><path d="M853.65 649.46L664.89 678.95" stroke="#132e65" stroke-width="1.5"></path><path d="M962.16 -58.25L962.16 -58.25" stroke="#132e65" stroke-width="1.5"></path><path d="M962.16 -58.25L972.92 103.75" stroke="#132e65" stroke-width="1.5"></path><path d="M962.16 -58.25L1131.48 -72.42" stroke="#132e65" stroke-width="1.5"></path><path d="M962.16 -58.25L1126.98 68.9" stroke="#132e65" stroke-width="1.5"></path><path d="M962.16 -58.25L1002.83 232.35" stroke="#132e65" stroke-width="1.5"></path><path d="M972.92 103.75L972.92 103.75" stroke="#132e65" stroke-width="1.5"></path><path d="M972.92 103.75L1002.83 232.35" stroke="#132e65" stroke-width="1.5"></path><path d="M972.92 103.75L1126.98 68.9" stroke="#132e65" stroke-width="1.5"></path><path d="M972.92 103.75L1153.85 252.27" stroke="#132e65" stroke-width="1.5"></path><path d="M972.92 103.75L1131.48 -72.42" stroke="#132e65" stroke-width="1.5"></path><path d="M1002.83 232.35L1002.83 232.35" stroke="#132e65" stroke-width="1.5"></path><path d="M1002.83 232.35L994.14 363.31" stroke="#132e65" stroke-width="1.5"></path><path d="M1002.83 232.35L1153.85 252.27" stroke="#132e65" stroke-width="1.5"></path><path d="M994.14 363.31L994.14 363.31" stroke="#132e65" stroke-width="1.5"></path><path d="M994.14 363.31L1100.26 359.27" stroke="#132e65" stroke-width="1.5"></path><path d="M994.14 363.31L953.09 500.47" stroke="#132e65" stroke-width="1.5"></path><path d="M994.14 363.31L1153.85 252.27" stroke="#132e65" stroke-width="1.5"></path><path d="M994.14 363.31L1132.53 517.74" stroke="#132e65" stroke-width="1.5"></path><path d="M953.09 500.47L953.09 500.47" stroke="#132e65" stroke-width="1.5"></path><path d="M987.58 676.32L987.58 676.32" stroke="#132e65" stroke-width="1.5"></path><path d="M987.58 676.32L953.09 500.47" stroke="#132e65" stroke-width="1.5"></path><path d="M987.58 676.32L841.37 522.5" stroke="#132e65" stroke-width="1.5"></path><path d="M1131.48 -72.42L1131.48 -72.42" stroke="#132e65" stroke-width="1.5"></path><path d="M1131.48 -72.42L1126.98 68.9" stroke="#132e65" stroke-width="1.5"></path><path d="M1131.48 -72.42L1303.68 -108.1" stroke="#132e65" stroke-width="1.5"></path><path d="M1131.48 -72.42L1247.81 84.81" stroke="#132e65" stroke-width="1.5"></path><path d="M1131.48 -72.42L1408.73 40.46" stroke="#132e65" stroke-width="1.5"></path><path d="M1126.98 68.9L1126.98 68.9" stroke="#132e65" stroke-width="1.5"></path><path d="M1126.98 68.9L1247.81 84.81" stroke="#132e65" stroke-width="1.5"></path><path d="M1153.85 252.27L1153.85 252.27" stroke="#132e65" stroke-width="1.5"></path><path d="M1153.85 252.27L1100.26 359.27" stroke="#132e65" stroke-width="1.5"></path><path d="M1153.85 252.27L1289.02 194.8" stroke="#132e65" stroke-width="1.5"></path><path d="M1153.85 252.27L1126.98 68.9" stroke="#132e65" stroke-width="1.5"></path><path d="M1153.85 252.27L1247.81 84.81" stroke="#132e65" stroke-width="1.5"></path><path d="M1100.26 359.27L1100.26 359.27" stroke="#132e65" stroke-width="1.5"></path><path d="M1132.53 517.74L1132.53 517.74" stroke="#132e65" stroke-width="1.5"></path><path d="M1132.53 517.74L1100.26 359.27" stroke="#132e65" stroke-width="1.5"></path><path d="M1132.53 517.74L1293.16 555.41" stroke="#132e65" stroke-width="1.5"></path><path d="M1132.53 517.74L953.09 500.47" stroke="#132e65" stroke-width="1.5"></path><path d="M1303.68 -108.1L1303.68 -108.1" stroke="#132e65" stroke-width="1.5"></path><path d="M1303.68 -108.1L1448.91 -82.12" stroke="#132e65" stroke-width="1.5"></path><path d="M1303.68 -108.1L1408.73 40.46" stroke="#132e65" stroke-width="1.5"></path><path d="M1303.68 -108.1L1247.81 84.81" stroke="#132e65" stroke-width="1.5"></path><path d="M1247.81 84.81L1247.81 84.81" stroke="#132e65" stroke-width="1.5"></path><path d="M1247.81 84.81L1289.02 194.8" stroke="#132e65" stroke-width="1.5"></path><path d="M1247.81 84.81L1408.73 40.46" stroke="#132e65" stroke-width="1.5"></path><path d="M1289.02 194.8L1289.02 194.8" stroke="#132e65" stroke-width="1.5"></path><path d="M1289.02 194.8L1389.68 236.35" stroke="#132e65" stroke-width="1.5"></path><path d="M1289.02 194.8L1408.73 40.46" stroke="#132e65" stroke-width="1.5"></path><path d="M1289.02 194.8L1308.15 397.02" stroke="#132e65" stroke-width="1.5"></path><path d="M1308.15 397.02L1308.15 397.02" stroke="#132e65" stroke-width="1.5"></path><path d="M1308.15 397.02L1406.43 397.1" stroke="#132e65" stroke-width="1.5"></path><path d="M1308.15 397.02L1398.77 493.26" stroke="#132e65" stroke-width="1.5"></path><path d="M1308.15 397.02L1293.16 555.41" stroke="#132e65" stroke-width="1.5"></path><path d="M1308.15 397.02L1389.68 236.35" stroke="#132e65" stroke-width="1.5"></path><path d="M1308.15 397.02L1100.26 359.27" stroke="#132e65" stroke-width="1.5"></path><path d="M1293.16 555.41L1293.16 555.41" stroke="#132e65" stroke-width="1.5"></path><path d="M1293.16 555.41L1398.77 493.26" stroke="#132e65" stroke-width="1.5"></path><path d="M1293.16 555.41L1282.41 688.58" stroke="#132e65" stroke-width="1.5"></path><path d="M1293.16 555.41L1399.08 695" stroke="#132e65" stroke-width="1.5"></path><path d="M1293.16 555.41L1406.43 397.1" stroke="#132e65" stroke-width="1.5"></path><path d="M1282.41 688.58L1282.41 688.58" stroke="#132e65" stroke-width="1.5"></path><path d="M1282.41 688.58L1399.08 695" stroke="#132e65" stroke-width="1.5"></path><path d="M1448.91 -82.12L1448.91 -82.12" stroke="#132e65" stroke-width="1.5"></path><path d="M1448.91 -82.12L1408.73 40.46" stroke="#132e65" stroke-width="1.5"></path><path d="M1448.91 -82.12L1600.05 -39.23" stroke="#132e65" stroke-width="1.5"></path><path d="M1448.91 -82.12L1602.57 92.65" stroke="#132e65" stroke-width="1.5"></path><path d="M1448.91 -82.12L1247.81 84.81" stroke="#132e65" stroke-width="1.5"></path><path d="M1408.73 40.46L1408.73 40.46" stroke="#132e65" stroke-width="1.5"></path><path d="M1408.73 40.46L1389.68 236.35" stroke="#132e65" stroke-width="1.5"></path><path d="M1389.68 236.35L1389.68 236.35" stroke="#132e65" stroke-width="1.5"></path><path d="M1389.68 236.35L1406.43 397.1" stroke="#132e65" stroke-width="1.5"></path><path d="M1389.68 236.35L1592.56 206.69" stroke="#132e65" stroke-width="1.5"></path><path d="M1389.68 236.35L1247.81 84.81" stroke="#132e65" stroke-width="1.5"></path><path d="M1406.43 397.1L1406.43 397.1" stroke="#132e65" stroke-width="1.5"></path><path d="M1406.43 397.1L1398.77 493.26" stroke="#132e65" stroke-width="1.5"></path><path d="M1406.43 397.1L1575.02 375.36" stroke="#132e65" stroke-width="1.5"></path><path d="M1398.77 493.26L1398.77 493.26" stroke="#132e65" stroke-width="1.5"></path><path d="M1399.08 695L1399.08 695" stroke="#132e65" stroke-width="1.5"></path><path d="M1399.08 695L1547.68 702.05" stroke="#132e65" stroke-width="1.5"></path><path d="M1600.05 -39.23L1600.05 -39.23" stroke="#132e65" stroke-width="1.5"></path><path d="M1600.05 -39.23L1602.57 92.65" stroke="#132e65" stroke-width="1.5"></path><path d="M1600.05 -39.23L1408.73 40.46" stroke="#132e65" stroke-width="1.5"></path><path d="M1600.05 -39.23L1592.56 206.69" stroke="#132e65" stroke-width="1.5"></path><path d="M1600.05 -39.23L1303.68 -108.1" stroke="#132e65" stroke-width="1.5"></path><path d="M1600.05 -39.23L1389.68 236.35" stroke="#132e65" stroke-width="1.5"></path><path d="M1602.57 92.65L1602.57 92.65" stroke="#132e65" stroke-width="1.5"></path><path d="M1602.57 92.65L1592.56 206.69" stroke="#132e65" stroke-width="1.5"></path><path d="M1592.56 206.69L1592.56 206.69" stroke="#132e65" stroke-width="1.5"></path><path d="M1592.56 206.69L1575.02 375.36" stroke="#132e65" stroke-width="1.5"></path><path d="M1592.56 206.69L1408.73 40.46" stroke="#132e65" stroke-width="1.5"></path><path d="M1575.02 375.36L1575.02 375.36" stroke="#132e65" stroke-width="1.5"></path><path d="M1575.02 375.36L1548.46 524.43" stroke="#132e65" stroke-width="1.5"></path><path d="M1575.02 375.36L1398.77 493.26" stroke="#132e65" stroke-width="1.5"></path><path d="M1575.02 375.36L1389.68 236.35" stroke="#132e65" stroke-width="1.5"></path><path d="M1575.02 375.36L1308.15 397.02" stroke="#132e65" stroke-width="1.5"></path><path d="M1548.46 524.43L1548.46 524.43" stroke="#132e65" stroke-width="1.5"></path><path d="M1548.46 524.43L1398.77 493.26" stroke="#132e65" stroke-width="1.5"></path><path d="M1548.46 524.43L1547.68 702.05" stroke="#132e65" stroke-width="1.5"></path><path d="M1548.46 524.43L1406.43 397.1" stroke="#132e65" stroke-width="1.5"></path><path d="M1548.46 524.43L1399.08 695" stroke="#132e65" stroke-width="1.5"></path><path d="M1547.68 702.05L1547.68 702.05" stroke="#132e65" stroke-width="1.5"></path><circle r="5" cx="-40.72" cy="396.22" fill="#132e65"></circle><circle r="5" cx="-42.66" cy="644.92" fill="#132e65"></circle><circle r="5" cx="108.99" cy="409.54" fill="#132e65"></circle><circle r="5" cx="70.77" cy="552.78" fill="#132e65"></circle><circle r="5" cx="87.16" cy="695.89" fill="#132e65"></circle><circle r="5" cx="238.26" cy="349.78" fill="#132e65"></circle><circle r="5" cx="232.2" cy="526.55" fill="#132e65"></circle><circle r="5" cx="258.5" cy="680.43" fill="#132e65"></circle><circle r="5" cx="396.15" cy="383.2" fill="#132e65"></circle><circle r="5" cx="354.18" cy="554.57" fill="#132e65"></circle><circle r="5" cx="388.83" cy="673.49" fill="#132e65"></circle><circle r="5" cx="538.63" cy="364.25" fill="#132e65"></circle><circle r="5" cx="531.04" cy="550.87" fill="#132e65"></circle><circle r="5" cx="541.47" cy="677.66" fill="#132e65"></circle><circle r="5" cx="710.68" cy="196.87" fill="#132e65"></circle><circle r="5" cx="708.3" cy="386.22" fill="#132e65"></circle><circle r="5" cx="688" cy="533.63" fill="#132e65"></circle><circle r="5" cx="664.89" cy="678.95" fill="#132e65"></circle><circle r="5" cx="848.33" cy="214.14" fill="#132e65"></circle><circle r="5" cx="836.46" cy="354.94" fill="#132e65"></circle><circle r="5" cx="841.37" cy="522.5" fill="#132e65"></circle><circle r="5" cx="853.65" cy="649.46" fill="#132e65"></circle><circle r="5" cx="962.16" cy="-58.25" fill="#132e65"></circle><circle r="5" cx="972.92" cy="103.75" fill="#132e65"></circle><circle r="5" cx="1002.83" cy="232.35" fill="#132e65"></circle><circle r="5" cx="994.14" cy="363.31" fill="#132e65"></circle><circle r="5" cx="953.09" cy="500.47" fill="#132e65"></circle><circle r="5" cx="987.58" cy="676.32" fill="#132e65"></circle><circle r="5" cx="1131.48" cy="-72.42" fill="#132e65"></circle><circle r="5" cx="1126.98" cy="68.9" fill="#132e65"></circle><circle r="5" cx="1153.85" cy="252.27" fill="#132e65"></circle><circle r="5" cx="1100.26" cy="359.27" fill="#132e65"></circle><circle r="5" cx="1132.53" cy="517.74" fill="#132e65"></circle><circle r="5" cx="1303.68" cy="-108.1" fill="#132e65"></circle><circle r="5" cx="1247.81" cy="84.81" fill="#132e65"></circle><circle r="5" cx="1289.02" cy="194.8" fill="#132e65"></circle><circle r="5" cx="1308.15" cy="397.02" fill="#132e65"></circle><circle r="5" cx="1293.16" cy="555.41" fill="#132e65"></circle><circle r="5" cx="1282.41" cy="688.58" fill="#132e65"></circle><circle r="5" cx="1448.91" cy="-82.12" fill="#132e65"></circle><circle r="5" cx="1408.73" cy="40.46" fill="#132e65"></circle><circle r="5" cx="1389.68" cy="236.35" fill="#132e65"></circle><circle r="5" cx="1406.43" cy="397.1" fill="#132e65"></circle><circle r="5" cx="1398.77" cy="493.26" fill="#132e65"></circle><circle r="5" cx="1399.08" cy="695" fill="#132e65"></circle><circle r="5" cx="1600.05" cy="-39.23" fill="#132e65"></circle><circle r="5" cx="1602.57" cy="92.65" fill="#132e65"></circle><circle r="5" cx="1592.56" cy="206.69" fill="#132e65"></circle><circle r="5" cx="1575.02" cy="375.36" fill="#132e65"></circle><circle r="5" cx="1548.46" cy="524.43" fill="#132e65"></circle><circle r="5" cx="1547.68" cy="702.05" fill="#132e65"></circle><path d="M667.44 516.39L667.44 516.39" stroke="hsl(228.5, 77.2%, 51.5%)" stroke-width="1.5"></path><path d="M667.44 516.39L536.69 511.94" stroke="hsl(228.5, 77.2%, 51.5%)" stroke-width="1.5"></path><path d="M667.44 516.39L659.14 655.59" stroke="hsl(228.5, 77.2%, 51.5%)" stroke-width="1.5"></path><path d="M667.44 516.39L711.82 372.06" stroke="hsl(228.5, 77.2%, 51.5%)" stroke-width="1.5"></path><path d="M667.44 516.39L853.68 535.77" stroke="hsl(228.5, 77.2%, 51.5%)" stroke-width="1.5"></path><path d="M798.76 351.84L798.76 351.84" stroke="hsl(228.5, 77.2%, 51.5%)" stroke-width="1.5"></path><path d="M798.76 351.84L711.82 372.06" stroke="hsl(228.5, 77.2%, 51.5%)" stroke-width="1.5"></path><path d="M798.76 351.84L966.73 364.98" stroke="hsl(228.5, 77.2%, 51.5%)" stroke-width="1.5"></path><path d="M798.76 351.84L853.68 535.77" stroke="hsl(228.5, 77.2%, 51.5%)" stroke-width="1.5"></path><path d="M798.76 351.84L667.44 516.39" stroke="hsl(228.5, 77.2%, 51.5%)" stroke-width="1.5"></path><path d="M798.76 351.84L945.98 513.28" stroke="hsl(228.5, 77.2%, 51.5%)" stroke-width="1.5"></path><path d="M853.68 535.77L853.68 535.77" stroke="hsl(228.5, 77.2%, 51.5%)" stroke-width="1.5"></path><path d="M853.68 535.77L945.98 513.28" stroke="hsl(228.5, 77.2%, 51.5%)" stroke-width="1.5"></path><path d="M853.68 535.77L825.67 682.47" stroke="hsl(228.5, 77.2%, 51.5%)" stroke-width="1.5"></path><path d="M853.68 535.77L1004.35 657.19" stroke="hsl(228.5, 77.2%, 51.5%)" stroke-width="1.5"></path><path d="M853.68 535.77L966.73 364.98" stroke="hsl(228.5, 77.2%, 51.5%)" stroke-width="1.5"></path><path d="M1155.09 -60.23L1155.09 -60.23" stroke="hsl(228.5, 77.2%, 51.5%)" stroke-width="1.5"></path><path d="M1155.09 -60.23L1279.95 -62.54" stroke="hsl(228.5, 77.2%, 51.5%)" stroke-width="1.5"></path><path d="M1155.09 -60.23L1259.09 91.95" stroke="hsl(228.5, 77.2%, 51.5%)" stroke-width="1.5"></path><path d="M1155.09 -60.23L1400.45 -108.07" stroke="hsl(228.5, 77.2%, 51.5%)" stroke-width="1.5"></path><path d="M1155.09 -60.23L1145.22 200.66" stroke="hsl(228.5, 77.2%, 51.5%)" stroke-width="1.5"></path><path d="M1155.09 -60.23L1442.47 77.1" stroke="hsl(228.5, 77.2%, 51.5%)" stroke-width="1.5"></path><path d="M1155.09 -60.23L1291.24 238.89" stroke="hsl(228.5, 77.2%, 51.5%)" stroke-width="1.5"></path><path d="M1162.13 363.79L1162.13 363.79" stroke="hsl(228.5, 77.2%, 51.5%)" stroke-width="1.5"></path><path d="M1162.13 363.79L1274.36 373.72" stroke="hsl(228.5, 77.2%, 51.5%)" stroke-width="1.5"></path><path d="M1162.13 363.79L1145.22 200.66" stroke="hsl(228.5, 77.2%, 51.5%)" stroke-width="1.5"></path><path d="M1162.13 363.79L1291.24 238.89" stroke="hsl(228.5, 77.2%, 51.5%)" stroke-width="1.5"></path><path d="M1162.13 363.79L966.73 364.98" stroke="hsl(228.5, 77.2%, 51.5%)" stroke-width="1.5"></path><path d="M1162.13 363.79L1090.75 561.34" stroke="hsl(228.5, 77.2%, 51.5%)" stroke-width="1.5"></path><path d="M1090.75 561.34L1090.75 561.34" stroke="hsl(228.5, 77.2%, 51.5%)" stroke-width="1.5"></path><path d="M1090.75 561.34L1106.41 685.68" stroke="hsl(228.5, 77.2%, 51.5%)" stroke-width="1.5"></path><path d="M1090.75 561.34L1004.35 657.19" stroke="hsl(228.5, 77.2%, 51.5%)" stroke-width="1.5"></path><path d="M1106.41 685.68L1106.41 685.68" stroke="hsl(228.5, 77.2%, 51.5%)" stroke-width="1.5"></path><path d="M1106.41 685.68L1004.35 657.19" stroke="hsl(228.5, 77.2%, 51.5%)" stroke-width="1.5"></path><path d="M1106.41 685.68L1240.7 690.52" stroke="hsl(228.5, 77.2%, 51.5%)" stroke-width="1.5"></path><path d="M1106.41 685.68L1272.59 558.28" stroke="hsl(228.5, 77.2%, 51.5%)" stroke-width="1.5"></path><path d="M1259.09 91.95L1259.09 91.95" stroke="hsl(228.5, 77.2%, 51.5%)" stroke-width="1.5"></path><path d="M1259.09 91.95L1291.24 238.89" stroke="hsl(228.5, 77.2%, 51.5%)" stroke-width="1.5"></path><path d="M1259.09 91.95L1279.95 -62.54" stroke="hsl(228.5, 77.2%, 51.5%)" stroke-width="1.5"></path><path d="M1259.09 91.95L1145.22 200.66" stroke="hsl(228.5, 77.2%, 51.5%)" stroke-width="1.5"></path><path d="M1259.09 91.95L1442.47 77.1" stroke="hsl(228.5, 77.2%, 51.5%)" stroke-width="1.5"></path><path d="M1274.36 373.72L1274.36 373.72" stroke="hsl(228.5, 77.2%, 51.5%)" stroke-width="1.5"></path><path d="M1274.36 373.72L1291.24 238.89" stroke="hsl(228.5, 77.2%, 51.5%)" stroke-width="1.5"></path><path d="M1400.45 -108.07L1400.45 -108.07" stroke="hsl(228.5, 77.2%, 51.5%)" stroke-width="1.5"></path><path d="M1400.45 -108.07L1279.95 -62.54" stroke="hsl(228.5, 77.2%, 51.5%)" stroke-width="1.5"></path><path d="M1400.45 -108.07L1589.02 -106.49" stroke="hsl(228.5, 77.2%, 51.5%)" stroke-width="1.5"></path><path d="M1400.45 -108.07L1442.47 77.1" stroke="hsl(228.5, 77.2%, 51.5%)" stroke-width="1.5"></path><path d="M1400.45 -108.07L1259.09 91.95" stroke="hsl(228.5, 77.2%, 51.5%)" stroke-width="1.5"></path><path d="M1442.47 77.1L1442.47 77.1" stroke="hsl(228.5, 77.2%, 51.5%)" stroke-width="1.5"></path><path d="M1442.47 77.1L1425.1 191.04" stroke="hsl(228.5, 77.2%, 51.5%)" stroke-width="1.5"></path><path d="M1442.47 77.1L1590.5 84.93" stroke="hsl(228.5, 77.2%, 51.5%)" stroke-width="1.5"></path><path d="M1442.47 77.1L1546.84 190.57" stroke="hsl(228.5, 77.2%, 51.5%)" stroke-width="1.5"></path><path d="M1425.1 191.04L1425.1 191.04" stroke="hsl(228.5, 77.2%, 51.5%)" stroke-width="1.5"></path><path d="M1425.1 191.04L1546.84 190.57" stroke="hsl(228.5, 77.2%, 51.5%)" stroke-width="1.5"></path><path d="M1425.1 191.04L1291.24 238.89" stroke="hsl(228.5, 77.2%, 51.5%)" stroke-width="1.5"></path><path d="M1590.5 84.93L1590.5 84.93" stroke="hsl(228.5, 77.2%, 51.5%)" stroke-width="1.5"></path><path d="M1590.5 84.93L1546.84 190.57" stroke="hsl(228.5, 77.2%, 51.5%)" stroke-width="1.5"></path><path d="M1590.5 84.93L1589.02 -106.49" stroke="hsl(228.5, 77.2%, 51.5%)" stroke-width="1.5"></path><path d="M1590.5 84.93L1425.1 191.04" stroke="hsl(228.5, 77.2%, 51.5%)" stroke-width="1.5"></path><path d="M1540.73 373.34L1540.73 373.34" stroke="hsl(228.5, 77.2%, 51.5%)" stroke-width="1.5"></path><path d="M1540.73 373.34L1418.19 372.98" stroke="hsl(228.5, 77.2%, 51.5%)" stroke-width="1.5"></path><path d="M1540.73 373.34L1546.84 190.57" stroke="hsl(228.5, 77.2%, 51.5%)" stroke-width="1.5"></path><path d="M1540.73 373.34L1610.73 560.11" stroke="hsl(228.5, 77.2%, 51.5%)" stroke-width="1.5"></path><path d="M1540.73 373.34L1425.1 191.04" stroke="hsl(228.5, 77.2%, 51.5%)" stroke-width="1.5"></path><path d="M1540.73 373.34L1274.36 373.72" stroke="hsl(228.5, 77.2%, 51.5%)" stroke-width="1.5"></path><path d="M-84.35 514.37L-84.35 514.37" stroke="hsl(228.5, 77.2%, 51.5%)" stroke-width="1.5"></path><path d="M-84.35 514.37L70.25 558.46" stroke="hsl(228.5, 77.2%, 51.5%)" stroke-width="1.5"></path><path d="M-84.35 514.37L-80.88 709.5" stroke="hsl(228.5, 77.2%, 51.5%)" stroke-width="1.5"></path><path d="M-84.35 514.37L53.95 700.96" stroke="hsl(228.5, 77.2%, 51.5%)" stroke-width="1.5"></path><path d="M-84.35 514.37L207.71 646.75" stroke="hsl(228.5, 77.2%, 51.5%)" stroke-width="1.5"></path><path d="M-80.88 709.5L-80.88 709.5" stroke="hsl(228.5, 77.2%, 51.5%)" stroke-width="1.5"></path><path d="M-80.88 709.5L53.95 700.96" stroke="hsl(228.5, 77.2%, 51.5%)" stroke-width="1.5"></path><path d="M-80.88 709.5L70.25 558.46" stroke="hsl(228.5, 77.2%, 51.5%)" stroke-width="1.5"></path><path d="M-80.88 709.5L207.71 646.75" stroke="hsl(228.5, 77.2%, 51.5%)" stroke-width="1.5"></path><path d="M70.25 558.46L70.25 558.46" stroke="hsl(228.5, 77.2%, 51.5%)" stroke-width="1.5"></path><path d="M70.25 558.46L53.95 700.96" stroke="hsl(228.5, 77.2%, 51.5%)" stroke-width="1.5"></path><path d="M70.25 558.46L207.71 646.75" stroke="hsl(228.5, 77.2%, 51.5%)" stroke-width="1.5"></path><path d="M53.95 700.96L53.95 700.96" stroke="hsl(228.5, 77.2%, 51.5%)" stroke-width="1.5"></path><path d="M255.04 554.36L255.04 554.36" stroke="hsl(228.5, 77.2%, 51.5%)" stroke-width="1.5"></path><path d="M255.04 554.36L207.71 646.75" stroke="hsl(228.5, 77.2%, 51.5%)" stroke-width="1.5"></path><path d="M255.04 554.36L367.92 647.55" stroke="hsl(228.5, 77.2%, 51.5%)" stroke-width="1.5"></path><path d="M255.04 554.36L394.76 500.78" stroke="hsl(228.5, 77.2%, 51.5%)" stroke-width="1.5"></path><path d="M255.04 554.36L70.25 558.46" stroke="hsl(228.5, 77.2%, 51.5%)" stroke-width="1.5"></path><path d="M207.71 646.75L207.71 646.75" stroke="hsl(228.5, 77.2%, 51.5%)" stroke-width="1.5"></path><path d="M207.71 646.75L367.92 647.55" stroke="hsl(228.5, 77.2%, 51.5%)" stroke-width="1.5"></path><path d="M207.71 646.75L53.95 700.96" stroke="hsl(228.5, 77.2%, 51.5%)" stroke-width="1.5"></path><path d="M394.76 500.78L394.76 500.78" stroke="hsl(228.5, 77.2%, 51.5%)" stroke-width="1.5"></path><path d="M394.76 500.78L536.69 511.94" stroke="hsl(228.5, 77.2%, 51.5%)" stroke-width="1.5"></path><path d="M394.76 500.78L367.92 647.55" stroke="hsl(228.5, 77.2%, 51.5%)" stroke-width="1.5"></path><path d="M394.76 500.78L207.71 646.75" stroke="hsl(228.5, 77.2%, 51.5%)" stroke-width="1.5"></path><path d="M367.92 647.55L367.92 647.55" stroke="hsl(228.5, 77.2%, 51.5%)" stroke-width="1.5"></path><path d="M536.69 511.94L536.69 511.94" stroke="hsl(228.5, 77.2%, 51.5%)" stroke-width="1.5"></path><path d="M711.82 372.06L711.82 372.06" stroke="hsl(228.5, 77.2%, 51.5%)" stroke-width="1.5"></path><path d="M711.82 372.06L853.68 535.77" stroke="hsl(228.5, 77.2%, 51.5%)" stroke-width="1.5"></path><path d="M711.82 372.06L536.69 511.94" stroke="hsl(228.5, 77.2%, 51.5%)" stroke-width="1.5"></path><path d="M711.82 372.06L966.73 364.98" stroke="hsl(228.5, 77.2%, 51.5%)" stroke-width="1.5"></path><path d="M659.14 655.59L659.14 655.59" stroke="hsl(228.5, 77.2%, 51.5%)" stroke-width="1.5"></path><path d="M659.14 655.59L825.67 682.47" stroke="hsl(228.5, 77.2%, 51.5%)" stroke-width="1.5"></path><path d="M659.14 655.59L536.69 511.94" stroke="hsl(228.5, 77.2%, 51.5%)" stroke-width="1.5"></path><path d="M659.14 655.59L853.68 535.77" stroke="hsl(228.5, 77.2%, 51.5%)" stroke-width="1.5"></path><path d="M659.14 655.59L711.82 372.06" stroke="hsl(228.5, 77.2%, 51.5%)" stroke-width="1.5"></path><path d="M659.14 655.59L367.92 647.55" stroke="hsl(228.5, 77.2%, 51.5%)" stroke-width="1.5"></path><path d="M825.67 682.47L825.67 682.47" stroke="hsl(228.5, 77.2%, 51.5%)" stroke-width="1.5"></path><path d="M825.67 682.47L1004.35 657.19" stroke="hsl(228.5, 77.2%, 51.5%)" stroke-width="1.5"></path><path d="M825.67 682.47L945.98 513.28" stroke="hsl(228.5, 77.2%, 51.5%)" stroke-width="1.5"></path><path d="M825.67 682.47L667.44 516.39" stroke="hsl(228.5, 77.2%, 51.5%)" stroke-width="1.5"></path><path d="M825.67 682.47L1106.41 685.68" stroke="hsl(228.5, 77.2%, 51.5%)" stroke-width="1.5"></path><path d="M966.73 364.98L966.73 364.98" stroke="hsl(228.5, 77.2%, 51.5%)" stroke-width="1.5"></path><path d="M966.73 364.98L945.98 513.28" stroke="hsl(228.5, 77.2%, 51.5%)" stroke-width="1.5"></path><path d="M966.73 364.98L1090.75 561.34" stroke="hsl(228.5, 77.2%, 51.5%)" stroke-width="1.5"></path><path d="M966.73 364.98L1145.22 200.66" stroke="hsl(228.5, 77.2%, 51.5%)" stroke-width="1.5"></path><path d="M945.98 513.28L945.98 513.28" stroke="hsl(228.5, 77.2%, 51.5%)" stroke-width="1.5"></path><path d="M945.98 513.28L1090.75 561.34" stroke="hsl(228.5, 77.2%, 51.5%)" stroke-width="1.5"></path><path d="M1004.35 657.19L1004.35 657.19" stroke="hsl(228.5, 77.2%, 51.5%)" stroke-width="1.5"></path><path d="M1004.35 657.19L945.98 513.28" stroke="hsl(228.5, 77.2%, 51.5%)" stroke-width="1.5"></path><path d="M1004.35 657.19L1240.7 690.52" stroke="hsl(228.5, 77.2%, 51.5%)" stroke-width="1.5"></path><path d="M1145.22 200.66L1145.22 200.66" stroke="hsl(228.5, 77.2%, 51.5%)" stroke-width="1.5"></path><path d="M1145.22 200.66L1291.24 238.89" stroke="hsl(228.5, 77.2%, 51.5%)" stroke-width="1.5"></path><path d="M1145.22 200.66L1274.36 373.72" stroke="hsl(228.5, 77.2%, 51.5%)" stroke-width="1.5"></path><path d="M1279.95 -62.54L1279.95 -62.54" stroke="hsl(228.5, 77.2%, 51.5%)" stroke-width="1.5"></path><path d="M1291.24 238.89L1291.24 238.89" stroke="hsl(228.5, 77.2%, 51.5%)" stroke-width="1.5"></path><path d="M1272.59 558.28L1272.59 558.28" stroke="hsl(228.5, 77.2%, 51.5%)" stroke-width="1.5"></path><path d="M1272.59 558.28L1240.7 690.52" stroke="hsl(228.5, 77.2%, 51.5%)" stroke-width="1.5"></path><path d="M1272.59 558.28L1090.75 561.34" stroke="hsl(228.5, 77.2%, 51.5%)" stroke-width="1.5"></path><path d="M1272.59 558.28L1274.36 373.72" stroke="hsl(228.5, 77.2%, 51.5%)" stroke-width="1.5"></path><path d="M1272.59 558.28L1162.13 363.79" stroke="hsl(228.5, 77.2%, 51.5%)" stroke-width="1.5"></path><path d="M1272.59 558.28L1418.19 372.98" stroke="hsl(228.5, 77.2%, 51.5%)" stroke-width="1.5"></path><path d="M1240.7 690.52L1240.7 690.52" stroke="hsl(228.5, 77.2%, 51.5%)" stroke-width="1.5"></path><path d="M1240.7 690.52L1090.75 561.34" stroke="hsl(228.5, 77.2%, 51.5%)" stroke-width="1.5"></path><path d="M1418.19 372.98L1418.19 372.98" stroke="hsl(228.5, 77.2%, 51.5%)" stroke-width="1.5"></path><path d="M1418.19 372.98L1274.36 373.72" stroke="hsl(228.5, 77.2%, 51.5%)" stroke-width="1.5"></path><path d="M1418.19 372.98L1425.1 191.04" stroke="hsl(228.5, 77.2%, 51.5%)" stroke-width="1.5"></path><path d="M1418.19 372.98L1291.24 238.89" stroke="hsl(228.5, 77.2%, 51.5%)" stroke-width="1.5"></path><path d="M1589.02 -106.49L1589.02 -106.49" stroke="hsl(228.5, 77.2%, 51.5%)" stroke-width="1.5"></path><path d="M1589.02 -106.49L1442.47 77.1" stroke="hsl(228.5, 77.2%, 51.5%)" stroke-width="1.5"></path><path d="M1546.84 190.57L1546.84 190.57" stroke="hsl(228.5, 77.2%, 51.5%)" stroke-width="1.5"></path><path d="M1610.73 560.11L1610.73 560.11" stroke="hsl(228.5, 77.2%, 51.5%)" stroke-width="1.5"></path><path d="M1610.73 560.11L1418.19 372.98" stroke="hsl(228.5, 77.2%, 51.5%)" stroke-width="1.5"></path><path d="M1610.73 560.11L1272.59 558.28" stroke="hsl(228.5, 77.2%, 51.5%)" stroke-width="1.5"></path><circle r="25" cx="667.44" cy="516.39" fill="url(#SvgjsRadialGradient1001)"></circle><circle r="25" cx="798.76" cy="351.84" fill="url(#SvgjsRadialGradient1001)"></circle><circle r="25" cx="853.68" cy="535.77" fill="url(#SvgjsRadialGradient1001)"></circle><circle r="25" cx="1155.09" cy="-60.23" fill="url(#SvgjsRadialGradient1001)"></circle><circle r="25" cx="1162.13" cy="363.79" fill="url(#SvgjsRadialGradient1001)"></circle><circle r="25" cx="1090.75" cy="561.34" fill="url(#SvgjsRadialGradient1001)"></circle><circle r="25" cx="1106.41" cy="685.68" fill="url(#SvgjsRadialGradient1001)"></circle><circle r="25" cx="1259.09" cy="91.95" fill="url(#SvgjsRadialGradient1001)"></circle><circle r="25" cx="1274.36" cy="373.72" fill="url(#SvgjsRadialGradient1001)"></circle><circle r="25" cx="1400.45" cy="-108.07" fill="url(#SvgjsRadialGradient1001)"></circle><circle r="25" cx="1442.47" cy="77.1" fill="url(#SvgjsRadialGradient1001)"></circle><circle r="25" cx="1425.1" cy="191.04" fill="url(#SvgjsRadialGradient1001)"></circle><circle r="25" cx="1590.5" cy="84.93" fill="url(#SvgjsRadialGradient1001)"></circle><circle r="25" cx="1540.73" cy="373.34" fill="url(#SvgjsRadialGradient1001)"></circle><circle r="5" cx="-84.35" cy="514.37" fill="#8b9ad9"></circle><circle r="5" cx="-80.88" cy="709.5" fill="#8b9ad9"></circle><circle r="5" cx="70.25" cy="558.46" fill="#8b9ad9"></circle><circle r="5" cx="53.95" cy="700.96" fill="#8b9ad9"></circle><circle r="5" cx="255.04" cy="554.36" fill="#8b9ad9"></circle><circle r="5" cx="207.71" cy="646.75" fill="#8b9ad9"></circle><circle r="5" cx="394.76" cy="500.78" fill="#8b9ad9"></circle><circle r="5" cx="367.92" cy="647.55" fill="#8b9ad9"></circle><circle r="5" cx="536.69" cy="511.94" fill="#8b9ad9"></circle><circle r="5" cx="711.82" cy="372.06" fill="#8b9ad9"></circle><circle r="5" cx="659.14" cy="655.59" fill="#8b9ad9"></circle><circle r="5" cx="825.67" cy="682.47" fill="#8b9ad9"></circle><circle r="5" cx="966.73" cy="364.98" fill="#8b9ad9"></circle><circle r="5" cx="945.98" cy="513.28" fill="#8b9ad9"></circle><circle r="5" cx="1004.35" cy="657.19" fill="#8b9ad9"></circle><circle r="5" cx="1145.22" cy="200.66" fill="#8b9ad9"></circle><circle r="5" cx="1279.95" cy="-62.54" fill="#8b9ad9"></circle><circle r="5" cx="1291.24" cy="238.89" fill="#8b9ad9"></circle><circle r="5" cx="1272.59" cy="558.28" fill="#8b9ad9"></circle><circle r="5" cx="1240.7" cy="690.52" fill="#8b9ad9"></circle><circle r="5" cx="1418.19" cy="372.98" fill="#8b9ad9"></circle><circle r="5" cx="1589.02" cy="-106.49" fill="#8b9ad9"></circle><circle r="5" cx="1546.84" cy="190.57" fill="#8b9ad9"></circle><circle r="5" cx="1610.73" cy="560.11" fill="#8b9ad9"></circle></g><defs><mask id="SvgjsMask1000"><rect width="1440" height="560" fill="#ffffff"></rect></mask><radialGradient id="SvgjsRadialGradient1001"><stop stop-color="#ffffff" offset="0.1"></stop><stop stop-color="#1735b3" offset="0.2"></stop><stop stop-color="rgba(23, 53, 179, 0)" offset="1"></stop></radialGradient></defs></svg>